<?xml version="1.0" standalone="no"?><!-- Generator: Gravit.io --><svg xmlns="http://www.w3.org/2000/svg" xmlns:xlink="http://www.w3.org/1999/xlink" style="isolation:isolate" viewBox="0 0 100 100" width="100" height="100"><defs><clipPath id="_clipPath_4GCP3VBidezVf5HIYrcACBtLS0o9BvP1"><rect width="100" height="100"/></clipPath></defs><g clip-path="url(#_clipPath_4GCP3VBidezVf5HIYrcACBtLS0o9BvP1)"><g><path d=" M 71.412 39.929 L 71.412 42.343 L 56.226 39.005 L 55.934 37.545 L 71.412 39.929 Z " fill="rgb(0,0,0)"/><path d=" M 54.1 34.84 Q 59.257 31.748 56.581 20.603 Q 52.399 28.779 49.138 29.959" fill="rgb(255,255,255)" vector-effect="non-scaling-stroke" stroke-width="3" stroke="rgb(0,0,0)" stroke-linejoin="miter" stroke-linecap="square" stroke-miterlimit="3"/><path d=" M 57.005 50.396 Q 57.921 28.962 43.638 25.749 Q 29.354 22.536 25.997 33.412 Q 23.485 71.031 28.043 74.559 C 34.139 79.278 40.802 79.766 43.638 79.847 C 46.424 79.927 53.934 78.84 53.916 74.559" fill="rgb(255,255,255)" vector-effect="non-scaling-stroke" stroke-width="3" stroke="rgb(0,0,0)" stroke-linejoin="miter" stroke-linecap="square" stroke-miterlimit="3"/><path d=" M 29.3 37.545 Q 22.017 31.46 24.693 21.417 Q 29.744 29.131 33.005 30.194" fill="rgb(255,255,255)" vector-effect="non-scaling-stroke" stroke-width="3" stroke="rgb(0,0,0)" stroke-linejoin="miter" stroke-linecap="round" stroke-miterlimit="3"/><path d=" M 71.412 39.929 L 71.412 42.419 Q 70.331 43.023 70.076 44.51 C 69.821 45.997 69.265 52.141 66.25 53.473 C 63.297 54.778 58.114 53.901 56.6 50.485 C 55.086 47.07 54.842 46.514 54.712 45.506 C 54.583 44.498 54.021 43.714 53.273 43.714 C 52.524 43.714 51.973 44.685 51.858 45.805 C 51.744 46.925 50.425 50.603 49.196 51.979 C 47.667 53.692 41.98 55.335 39.63 52.975 C 36.851 50.184 36.806 46.628 36.552 44.51 Q 36.344 42.775 35.221 42.419 L 35.221 39.929 Q 46.507 38.349 50.195 40.826 C 51.635 41.793 54.744 41.903 55.495 41.224 Q 57.532 39.385 62.922 39.431 Q 71.384 39.837 71.412 39.929 Z " fill="rgb(0,0,0)" vector-effect="non-scaling-stroke" stroke-width="0.2" stroke="rgb(255,255,255)" stroke-linejoin="miter" stroke-linecap="square" stroke-miterlimit="3"/><path d=" M 56.132 45.777 Q 55.926 40.512 61.388 40.751 C 66.851 40.99 68.717 40.962 68.745 45.118 C 68.773 49.274 66.721 51.85 65.75 52.288 C 64.78 52.727 61.46 53.992 58.848 51.609 Q 56.491 49.458 56.132 45.777 Z " fill="rgb(255,255,255)" vector-effect="non-scaling-stroke" stroke-width="1" stroke="rgb(0,0,0)" stroke-linejoin="miter" stroke-linecap="square" stroke-miterlimit="3"/><path d="M 70.255 40.925 L 69.232 40.925 C 69.101 40.925 68.995 41.032 68.995 41.163 L 68.995 41.285 C 68.995 41.416 69.101 41.523 69.232 41.523 L 70.255 41.523 C 70.386 41.523 70.492 41.416 70.492 41.285 L 70.492 41.163 C 70.492 41.032 70.386 40.925 70.255 40.925 Z" style="stroke:none;fill:#000000;stroke-miterlimit:10;"/><path d="M 70.255 40.925 L 69.232 40.925 C 69.101 40.925 68.995 41.032 68.995 41.163 L 68.995 41.285 C 68.995 41.416 69.101 41.523 69.232 41.523 L 70.255 41.523 C 70.386 41.523 70.492 41.416 70.492 41.285 L 70.492 41.163 C 70.492 41.032 70.386 40.925 70.255 40.925 Z" style="fill:none;stroke:#000000;stroke-width:1;stroke-linecap:square;stroke-miterlimit:3;"/><path d=" M 50.438 44.068 C 50.012 41.763 47.426 40.602 45.2 40.537 C 39.735 40.378 37.851 40.918 37.823 45.074 C 37.796 49.23 40.02 51.736 40.889 52.413 C 41.998 53.276 45.565 53.241 47.862 51.498 C 49.007 50.629 50.93 46.729 50.438 44.068 Z " fill="rgb(255,255,255)"/><path d="M 36.203 40.925 L 37.226 40.925 C 37.357 40.925 37.463 41.032 37.463 41.163 L 37.463 41.285 C 37.463 41.416 37.357 41.523 37.226 41.523 L 36.203 41.523 C 36.072 41.523 35.966 41.416 35.966 41.285 L 35.966 41.163 C 35.966 41.032 36.072 40.925 36.203 40.925 Z" style="stroke:none;fill:#000000;stroke-linecap:square;stroke-miterlimit:3;"/><path d="M 36.203 40.925 L 37.226 40.925 C 37.357 40.925 37.463 41.032 37.463 41.163 L 37.463 41.285 C 37.463 41.416 37.357 41.523 37.226 41.523 L 36.203 41.523 C 36.072 41.523 35.966 41.416 35.966 41.285 L 35.966 41.163 C 35.966 41.032 36.072 40.925 36.203 40.925 Z" style="fill:none;stroke:#000000;stroke-width:1;stroke-linecap:square;stroke-miterlimit:3;"/><path d=" M 40.986 69.007 Q 44.743 70.979 49.498 72.675 C 57.679 75.352 64.594 75.493 69.694 74.701 C 73.711 74.077 76.831 72.913 78.628 69.82 C 81.481 64.908 80.396 56.353 70.809 52.718 C 66.052 50.915 61.512 50.188 57.189 50.538 Q 54.553 50.751 52.025 51.498" fill="rgb(255,255,255)" vector-effect="non-scaling-stroke" stroke-width="3" stroke="rgb(0,0,0)" stroke-linejoin="miter" stroke-linecap="round" stroke-miterlimit="3"/><path d=" M 35 40 L 35 42.343 L 25.278 39.864 C 25.983 39.135 26.016 38.629 25.341 38.453 L 35 40 Z " fill="rgb(0,0,0)"/><path d=" M 78.515 12.5 Q 86.24 12.548 86.292 31.493 Q 86.344 50.096 91.464 50" fill="none" vector-effect="non-scaling-stroke" stroke-width="3" stroke="rgb(0,0,0)" stroke-linejoin="miter" stroke-linecap="square" stroke-miterlimit="3"/><path d=" M 78.243 87.5 Q 85.967 87.452 86.02 68.507 Q 86.071 49.904 91.464 50" fill="none" vector-effect="non-scaling-stroke" stroke-width="3" stroke="rgb(0,0,0)" stroke-linejoin="miter" stroke-linecap="square" stroke-miterlimit="3"/><path d=" M 21.485 12.5 Q 13.76 12.548 13.708 31.493 Q 13.656 50.096 8.536 50" fill="none" vector-effect="non-scaling-stroke" stroke-width="3" stroke="rgb(0,0,0)" stroke-linejoin="miter" stroke-linecap="square" stroke-miterlimit="3"/><path d=" M 21.757 87.5 Q 14.033 87.452 13.98 68.507 Q 13.929 49.904 8.536 50" fill="none" vector-effect="non-scaling-stroke" stroke-width="3" stroke="rgb(0,0,0)" stroke-linejoin="miter" stroke-linecap="square" stroke-miterlimit="3"/><ellipse vector-effect="non-scaling-stroke" cx="36.991085635466405" cy="41.14243808841751" rx="0.7446179939295376" ry="0.40214477211796407" fill="rgb(235,235,235)"/><ellipse vector-effect="non-scaling-stroke" cx="69.5790731345002" cy="41.14243808841751" rx="0.7446179939295376" ry="0.40214477211796407" fill="rgb(235,235,235)"/></g></g></svg>