<?xml version="1.0" standalone="no"?><!-- Generator: Gravit.io --><svg xmlns="http://www.w3.org/2000/svg" xmlns:xlink="http://www.w3.org/1999/xlink" style="isolation:isolate" viewBox="0 0 1200 1200" width="1200" height="1200"><defs><clipPath id="_clipPath_6aZDK4FMNWfsFU2OwlvIjJedUUVDpcgH"><rect width="1200" height="1200"/></clipPath></defs><g clip-path="url(#_clipPath_6aZDK4FMNWfsFU2OwlvIjJedUUVDpcgH)"><path d=" M 856.103 499.83 L 856.103 523.837 L 682.756 490.639 L 679.422 476.115 L 856.103 499.83 Z " fill="rgb(0,0,0)" vector-effect="non-scaling-stroke" stroke-width="1" stroke="rgb(0,0,0)" stroke-linejoin="miter" stroke-linecap="square" stroke-miterlimit="3"/><path d=" M 658.481 449.204 Q 717.348 418.456 686.802 307.601 Q 639.061 388.922 601.84 400.654" fill="rgb(255,255,255)" vector-effect="non-scaling-stroke" stroke-width="15" stroke="rgb(0,0,0)" stroke-linejoin="miter" stroke-linecap="square" stroke-miterlimit="3"/><path d=" M 691.65 603.936 Q 702.099 390.746 539.053 358.784 Q 376.007 326.823 337.682 435 Q 309.003 809.19 361.037 844.283 C 430.625 891.214 506.686 896.069 539.053 896.878 C 570.861 897.673 656.584 886.865 656.382 844.283" fill="rgb(255,255,255)" vector-effect="non-scaling-stroke" stroke-width="15" stroke="rgb(0,0,0)" stroke-linejoin="miter" stroke-linecap="square" stroke-miterlimit="3"/><path d=" M 375.39 476.115 Q 292.248 415.592 322.794 315.692 Q 380.46 392.427 417.681 403" fill="rgb(255,255,255)" vector-effect="non-scaling-stroke" stroke-width="15" stroke="rgb(0,0,0)" stroke-linejoin="miter" stroke-linecap="round" stroke-miterlimit="3"/><path d=" M 856.103 499.83 L 856.103 524.594 Q 843.77 530.603 840.858 545.395 C 837.946 560.187 831.597 621.295 797.176 634.544 C 763.465 647.52 704.305 638.803 687.022 604.828 C 669.739 570.852 666.95 565.33 665.472 555.301 C 663.994 545.271 657.585 537.471 649.038 537.471 C 640.492 537.471 634.201 547.129 632.895 558.272 C 631.589 569.416 616.531 605.996 602.508 619.686 C 585.055 636.723 520.13 653.067 493.303 629.591 C 461.582 601.832 461.065 566.456 458.168 545.395 Q 455.794 528.135 442.974 524.594 L 442.974 499.83 Q 571.804 484.114 613.903 508.745 C 630.342 518.363 665.83 519.457 674.409 512.707 Q 697.658 494.415 759.192 494.878 Q 855.79 498.914 856.103 499.83 Z " fill="rgb(0,0,0)" vector-effect="non-scaling-stroke" stroke-width="4" stroke="rgb(255,255,255)" stroke-linejoin="miter" stroke-linecap="square" stroke-miterlimit="3"/><path d=" M 681.681 558 Q 679.324 505.623 741.681 508 C 804.039 510.377 825.344 510.104 825.661 551.443 C 825.978 592.781 802.554 618.403 791.475 622.762 C 780.397 627.12 742.496 639.709 712.681 616 Q 685.776 594.604 681.681 558 Z " fill="rgb(255,255,255)" vector-effect="non-scaling-stroke" stroke-width="1" stroke="rgb(0,0,0)" stroke-linejoin="miter" stroke-linecap="square" stroke-miterlimit="3"/><path d="M 843.074 509.736 L 831.044 509.736 C 829.647 509.736 828.513 510.87 828.513 512.267 L 828.513 513.148 C 828.513 514.545 829.647 515.679 831.044 515.679 L 843.074 515.679 C 844.472 515.679 845.606 514.545 845.606 513.148 L 845.606 512.267 C 845.606 510.87 844.472 509.736 843.074 509.736 Z" style="stroke:none;fill:#000000;stroke-miterlimit:10;"/><path d="M 843.074 509.736 L 831.044 509.736 C 829.647 509.736 828.513 510.87 828.513 512.267 L 828.513 513.148 C 828.513 514.545 829.647 515.679 831.044 515.679 L 843.074 515.679 C 844.472 515.679 845.606 514.545 845.606 513.148 L 845.606 512.267 C 845.606 510.87 844.472 509.736 843.074 509.736 Z" style="fill:none;stroke:#000000;stroke-width:1;stroke-linecap:square;stroke-miterlimit:3;"/><path d=" M 616.681 541 C 611.818 518.074 582.303 506.524 556.888 505.878 C 494.507 504.292 472.998 509.661 472.681 551 C 472.365 592.339 497.757 617.265 507.681 624 C 520.338 632.59 561.057 632.241 587.275 614.901 C 600.345 606.256 622.296 567.464 616.681 541 Z " fill="rgb(255,255,255)"/><path d="M 454.01 509.736 L 466.04 509.736 C 467.437 509.736 468.571 510.87 468.571 512.267 L 468.571 513.148 C 468.571 514.545 467.437 515.679 466.04 515.679 L 454.01 515.679 C 452.613 515.679 451.479 514.545 451.479 513.148 L 451.479 512.267 C 451.479 510.87 452.613 509.736 454.01 509.736 Z" style="stroke:none;fill:#000000;stroke-linecap:square;stroke-miterlimit:3;"/><path d="M 454.01 509.736 L 466.04 509.736 C 467.437 509.736 468.571 510.87 468.571 512.267 L 468.571 513.148 C 468.571 514.545 467.437 515.679 466.04 515.679 L 454.01 515.679 C 452.613 515.679 451.479 514.545 451.479 513.148 L 451.479 512.267 C 451.479 510.87 452.613 509.736 454.01 509.736 Z" style="fill:none;stroke:#000000;stroke-width:1;stroke-linecap:square;stroke-miterlimit:3;"/><path d=" M 508.786 789.053 Q 551.672 808.675 605.956 825.536 C 699.344 852.168 778.274 853.572 836.497 845.694 C 882.35 839.491 917.968 827.908 938.474 797.145 C 971.046 748.282 958.661 663.19 849.221 627.038 C 794.916 609.099 743.092 601.869 693.749 605.347 Q 663.656 607.469 634.793 614.901" fill="rgb(255,255,255)" vector-effect="non-scaling-stroke" stroke-width="15" stroke="rgb(0,0,0)" stroke-linejoin="miter" stroke-linecap="round" stroke-miterlimit="3"/><path d=" M 441.681 502 L 441.681 523 L 329.681 500.582 C 338.448 493.44 338.935 488.571 330.682 487 L 441.681 502 Z " fill="rgb(0,0,0)" vector-effect="non-scaling-stroke" stroke-width="1" stroke="rgb(0,0,0)" stroke-linejoin="miter" stroke-linecap="square" stroke-miterlimit="3"/><path d=" M 937.19 227 Q 1025.367 227.475 1025.968 415.917 Q 1026.558 600.953 1085 599.995" fill="none" vector-effect="non-scaling-stroke" stroke-width="40" stroke="rgb(0,0,0)" stroke-linejoin="miter" stroke-linecap="square" stroke-miterlimit="3"/><path d=" M 934.077 973 Q 1022.255 972.525 1022.855 784.083 Q 1023.445 599.047 1085 600.005" fill="none" vector-effect="non-scaling-stroke" stroke-width="40" stroke="rgb(0,0,0)" stroke-linejoin="miter" stroke-linecap="square" stroke-miterlimit="3"/><path d=" M 286.173 227 Q 197.996 227.475 197.395 415.917 Q 196.805 600.953 138.363 599.995" fill="none" vector-effect="non-scaling-stroke" stroke-width="40" stroke="rgb(0,0,0)" stroke-linejoin="miter" stroke-linecap="square" stroke-miterlimit="3"/><path d=" M 289.286 973 Q 201.108 972.525 200.508 784.083 Q 199.918 599.047 138.363 600.005" fill="none" vector-effect="non-scaling-stroke" stroke-width="40" stroke="rgb(0,0,0)" stroke-linejoin="miter" stroke-linecap="square" stroke-miterlimit="3"/><ellipse vector-effect="non-scaling-stroke" cx="463.1814770147055" cy="511.89678418612584" rx="8.5" ry="4" fill="rgb(235,235,235)"/><ellipse vector-effect="non-scaling-stroke" cx="835.1814770147055" cy="511.89678418612584" rx="8.5" ry="4" fill="rgb(235,235,235)"/></g></svg>